<svg xmlns="http://www.w3.org/2000/svg" xmlns:xlink="http://www.w3.org/1999/xlink" viewBox="0 0 294.03 140.68"><defs><style>.cls-1{isolation:isolate;}.cls-2{fill:#282f3a;}.cls-3{fill:url(#linear-gradient);}.cls-10,.cls-11,.cls-4,.cls-5,.cls-6,.cls-7,.cls-9{mix-blend-mode:multiply;}.cls-4{fill:url(#linear-gradient-2);}.cls-5{fill:url(#linear-gradient-3);}.cls-6{fill:url(#linear-gradient-4);}.cls-8{fill:url(#linear-gradient-5);}.cls-9{fill:url(#linear-gradient-6);}.cls-10{fill:url(#linear-gradient-7);}.cls-11{fill:url(#linear-gradient-8);}</style><linearGradient id="linear-gradient" x1="31.8" y1="87.99" x2="307.03" y2="87.99" gradientTransform="translate(-13 -14.13)" gradientUnits="userSpaceOnUse"><stop offset="0" stop-color="#ed3354"/><stop offset="0.5" stop-color="#f15b30"/><stop offset="1" stop-color="#f78d1e"/></linearGradient><linearGradient id="linear-gradient-2" x1="120.49" y1="108.04" x2="141.37" y2="119.78" gradientUnits="userSpaceOnUse"><stop offset="0" stop-color="#231f20"/><stop offset="0.99" stop-color="#f1f2f2" stop-opacity="0"/></linearGradient><linearGradient id="linear-gradient-3" x1="223.25" y1="109.96" x2="195.52" y2="99.19" gradientUnits="userSpaceOnUse"><stop offset="0.01" stop-color="#ed3354"/><stop offset="0.99" stop-color="#f1f2f2" stop-opacity="0"/></linearGradient><linearGradient id="linear-gradient-4" x1="299.54" y1="98.97" x2="227.46" y2="87.88" xlink:href="#linear-gradient-3"/><linearGradient id="linear-gradient-5" x1="303.06" y1="109.84" x2="280.89" y2="102.34" gradientTransform="translate(-13 -14.13)" xlink:href="#linear-gradient-3"/><linearGradient id="linear-gradient-6" x1="126.7" y1="75.99" x2="100.61" y2="61.64" xlink:href="#linear-gradient-2"/><linearGradient id="linear-gradient-7" x1="101.71" y1="75.78" x2="69.42" y2="59.47" xlink:href="#linear-gradient-2"/><linearGradient id="linear-gradient-8" x1="62.07" y1="86.86" x2="44.79" y2="78.06" xlink:href="#linear-gradient-2"/></defs><title>Artboard 6 copy</title><g class="cls-1"><g id="Layer_1" data-name="Layer 1"><path class="cls-2" d="M157.3,64.34l-1.87-.94,14.89-29.33L163.51,8.25,138.73,18,123.84,47.35,117.21,44l15.3-30.13a5.12,5.12,0,0,1,2.66-2.42L163.27.35A5.05,5.05,0,0,1,170,3.77l7.73,29.28a5,5,0,0,1-.38,3.58L164.48,62A5.34,5.34,0,0,1,157.3,64.34Z"/><path class="cls-3" d="M208.69,120.75a3.31,3.31,0,0,1-3.07-4.61,28.18,28.18,0,0,1,1-3.21l17.65-45.28a.59.59,0,0,0-.55-.81h-9.93a.6.6,0,0,0-.53.33l-2.89,6a.62.62,0,0,1-.52.34.6.6,0,0,1-.53-.29c-2.32-3.77-7.64-7.79-15.61-7.79-18.29,0-35.73,17.21-40.58,40-1.78,8.37-.76,15.21,2.94,19.78,3,3.7,7.53,5.66,13.1,5.66,8.23,0,15.75-3.49,23-10.67a.6.6,0,0,1,.67-.13.63.63,0,0,1,.35.58,7.48,7.48,0,0,0,1.74,5.91c1.88,2,5.38,3,10.69,3.1a.59.59,0,0,0,.57-.38l2.94-7.72a.6.6,0,0,0,0-.52A.58.58,0,0,0,208.69,120.75Zm-12.33-13.5c-7.81,9.31-14.87,13.83-21.56,13.83a8.49,8.49,0,0,1-6.88-2.93c-2.33-2.88-2.82-7.61-1.45-14.06,3.5-16.49,14.85-28.92,26.4-28.92,5.33,0,9.4,1.84,13.19,6a.57.57,0,0,1,.12.61l-9.72,25.32A.59.59,0,0,1,196.36,107.25Zm51.11,10.89a.59.59,0,0,0-.33-.39.59.59,0,0,0-.52,0c-3.77,2-6.87,3-9.48,3-2,0-3.3-.47-4.08-1.44s-1-2.51-.56-4.58a50.7,50.7,0,0,1,1.93-6.23l12.46-32a.6.6,0,0,1,.56-.38h20.74a.58.58,0,0,0,.56-.39l3-8.1a.6.6,0,0,0-.07-.55.58.58,0,0,0-.49-.25H251.48a.61.61,0,0,1-.49-.26.62.62,0,0,1-.06-.56l6-15.49a.6.6,0,0,0-.56-.81h-11.3a.6.6,0,0,0-.56.38l-6.35,16.36a.6.6,0,0,1-.56.38H228a.6.6,0,0,0-.56.38l-3.11,8.1a.6.6,0,0,0,.06.55.61.61,0,0,0,.49.26h8.87a.63.63,0,0,1,.5.26.61.61,0,0,1,.06.56l-11.83,30.13a68.89,68.89,0,0,0-3.36,10.16c-.81,3.8-.2,7.08,1.75,9.5,2.19,2.7,5.87,4.12,10.65,4.12a39.53,39.53,0,0,0,17.6-4.65.59.59,0,0,0,.3-.68Zm39.11-50.7h-11.3a.6.6,0,0,0-.56.38L251,128.6a.61.61,0,0,0,.56.82H263a.61.61,0,0,0,.56-.39l23.59-60.78a.57.57,0,0,0-.07-.55A.59.59,0,0,0,286.58,67.44Zm7.34-17.07a.59.59,0,0,0-.49-.26H282.12a.6.6,0,0,0-.56.38l-4.32,11a.6.6,0,0,0,.06.55.63.63,0,0,0,.5.26h11.41a.6.6,0,0,0,.56-.38l4.22-11A.6.6,0,0,0,293.92,50.37ZM112.64,49.28l8,4.32L124,47l-7.78-4.28a12.89,12.89,0,0,0-10.68-.91,13.28,13.28,0,0,0-7.28,6.43l-16,30.55a.17.17,0,0,0,.08.24l1.65.87a5.38,5.38,0,0,0,7.27-2.28L105,51.51a5.51,5.51,0,0,1,7.67-2.23ZM93.32,53.59a.19.19,0,0,0,.24-.07L97,47.34A.19.19,0,0,0,97,47.1l-8.08-4.52a12.89,12.89,0,0,0-10.43-1,13.64,13.64,0,0,0-7.63,6.73L55,78.65a.18.18,0,0,0,.08.24l1.65.87A5.38,5.38,0,0,0,64,77.48L77.63,51.33a5.56,5.56,0,0,1,4.58-3,5.78,5.78,0,0,1,3.21.81ZM59.21,52.31,65,55.55l3.63-6.49-5.79-3.24A12.72,12.72,0,0,0,45.35,51l-26,49.65a5.16,5.16,0,0,0,2.18,7l2,1.06L51.94,54.47a5.3,5.3,0,0,1,7.27-2.16Zm107.4-25.18a12.88,12.88,0,0,0-6.5-7l-3.32-1.67a13.22,13.22,0,0,0-8.8-1.62,12.73,12.73,0,0,0-9.13,6.68L108.28,82l2,1a5.22,5.22,0,0,0,7-2.2L145.44,27A5.41,5.41,0,0,1,150,24.06a5.56,5.56,0,0,1,3,.77l4,2.05a5.17,5.17,0,0,1,2.44,2.4,4.92,4.92,0,0,1-.11,4.41l-45.13,85.2,2.78,1.48a4.29,4.29,0,0,0,5.8-1.79l43.12-81.41A12.31,12.31,0,0,0,166.61,27.13ZM131,108.69h0C130.94,108.59,131,108.65,131,108.69Zm4.07-7.69L131,108.68l4.53,7.7a7.51,7.51,0,0,1,0,7.62l-3.42,5.77.63.38a6.72,6.72,0,0,0,9.19-2.36,14.93,14.93,0,0,0,0-15.18C135.43,101.54,135.18,101.18,135.07,101Z"/><path class="cls-4" d="M135.07,101,131,108.68l4.53,7.7a7.51,7.51,0,0,1,0,7.62l-3.42,5.77.63.38a6.72,6.72,0,0,0,9.19-2.36h0a14.93,14.93,0,0,0,0-15.18C135.43,101.54,135.18,101.18,135.07,101Z"/><path class="cls-5" d="M208.69,120.75a3.31,3.31,0,0,1-3.07-4.61,28.18,28.18,0,0,1,1-3.21l17.65-45.28a.59.59,0,0,0-.55-.81h-9.93a.6.6,0,0,0-.53.33l-2.89,6a.62.62,0,0,1-.52.34.6.6,0,0,1-.53-.29c-2.32-3.77-7.64-7.79-15.61-7.79-18.29,0-35.73,17.21-40.58,40-1.78,8.37-.76,15.21,2.94,19.78,3,3.7,7.53,5.66,13.1,5.66,8.23,0,15.75-3.49,23-10.67a.6.6,0,0,1,.67-.13.63.63,0,0,1,.35.58,7.48,7.48,0,0,0,1.74,5.91c1.88,2,5.38,3,10.69,3.1a.59.59,0,0,0,.57-.38l2.94-7.72a.6.6,0,0,0,0-.52A.58.58,0,0,0,208.69,120.75ZM192.87,75.17c5.33,0,9.4,1.84,13.19,6a.57.57,0,0,1,.12.61l-9.72,25.32a.59.59,0,0,1-.1.17c-7.82,9.31-14.87,13.83-21.56,13.83a8.49,8.49,0,0,1-6.88-2.93c-2.33-2.88-2.82-7.61-1.45-14.06C170,87.6,181.32,75.17,192.87,75.17Z"/><path class="cls-6" d="M247.47,118.14a.59.59,0,0,0-.33-.39.59.59,0,0,0-.52,0c-3.77,2-6.87,3-9.48,3-2,0-3.3-.47-4.08-1.44s-1-2.51-.56-4.58a50.7,50.7,0,0,1,1.93-6.23l12.46-32a.6.6,0,0,1,.56-.38h20.74a.58.58,0,0,0,.56-.39l3-8.1a.6.6,0,0,0-.07-.55.58.58,0,0,0-.49-.25H251.48a.61.61,0,0,1-.49-.26.62.62,0,0,1-.06-.56l6-15.49a.6.6,0,0,0-.56-.81h-11.3a.6.6,0,0,0-.56.38l-6.35,16.36a.6.6,0,0,1-.56.38H228a.6.6,0,0,0-.56.38l-3.11,8.1a.6.6,0,0,0,.06.55.61.61,0,0,0,.49.26h8.87a.63.63,0,0,1,.5.26.61.61,0,0,1,.06.56l-11.83,30.13a68.89,68.89,0,0,0-3.36,10.16c-.81,3.8-.2,7.08,1.75,9.5,2.19,2.7,5.87,4.12,10.65,4.12a39.53,39.53,0,0,0,17.6-4.65.59.59,0,0,0,.3-.68Z"/><g class="cls-7"><path class="cls-8" d="M286.58,67.44h-11.3a.6.6,0,0,0-.56.38L251,128.6a.61.61,0,0,0,.56.82H263a.61.61,0,0,0,.56-.39l23.59-60.78a.57.57,0,0,0-.07-.55A.59.59,0,0,0,286.58,67.44Zm7.34-17.07a.59.59,0,0,0-.49-.26H282.12a.6.6,0,0,0-.56.38l-4.32,11a.6.6,0,0,0,.06.55.63.63,0,0,0,.5.26h11.41a.6.6,0,0,0,.56-.38l4.22-11A.6.6,0,0,0,293.92,50.37Z"/></g><path class="cls-9" d="M112.64,49.28l7.94,4.32L124,47l-7.79-4.29a12.92,12.92,0,0,0-10.68-.9,13.3,13.3,0,0,0-7.27,6.43l-16,30.55a.18.18,0,0,0,.07.24l1.66.87a5.39,5.39,0,0,0,7.27-2.28L105,51.51a5.57,5.57,0,0,1,4.59-3A5.49,5.49,0,0,1,112.64,49.28Z"/><path class="cls-10" d="M85.42,49.17l7.9,4.42a.19.19,0,0,0,.24-.07L97,47.34A.19.19,0,0,0,97,47.1l-8.08-4.52a12.89,12.89,0,0,0-10.43-1,13.68,13.68,0,0,0-7.63,6.73L55,78.65a.18.18,0,0,0,.08.24l1.65.87A5.38,5.38,0,0,0,64,77.48L77.63,51.33a5.56,5.56,0,0,1,4.58-3A5.78,5.78,0,0,1,85.42,49.17Z"/><path class="cls-11" d="M59.21,52.31,65,55.55l3.63-6.49-5.79-3.24A12.72,12.72,0,0,0,45.35,51l-26,49.65a5.16,5.16,0,0,0,2.18,7l2,1.06L51.94,54.47a5.3,5.3,0,0,1,7.27-2.16Z"/><path class="cls-2" d="M143.46,124.5a121.28,121.28,0,0,1-45.18,8.74A121.1,121.1,0,0,1,9,94a5.15,5.15,0,0,0-7.13-.46L0,95.08a128.54,128.54,0,0,0,98.28,45.6,128.69,128.69,0,0,0,40.2-6.44C140.24,131.05,142,127.83,143.46,124.5Z"/></g></g></svg>