<svg id="Capa_1" data-name="Capa 1" xmlns="http://www.w3.org/2000/svg" viewBox="0 0 30 30"><defs><style>.cls-1,.cls-10,.cls-11,.cls-2,.cls-3,.cls-4{fill:none;}.cls-1,.cls-2,.cls-3,.cls-4{stroke:#aeadb3;}.cls-1,.cls-10,.cls-11,.cls-2,.cls-3,.cls-4,.cls-9{stroke-miterlimit:22.93;}.cls-1{stroke-width:11.34px;}.cls-10,.cls-2{stroke-width:8.5px;}.cls-11,.cls-3{stroke-width:5.67px;}.cls-4{stroke-width:4.25px;}.cls-5,.cls-9{fill:#fff;}.cls-6{font-size:27.76px;font-family:FuturaBT-Bold, Futura Md BT;font-weight:700;}.cls-6,.cls-7,.cls-8{fill:#211915;}.cls-7{font-size:72.6px;}.cls-7,.cls-8{font-family:FuturaBT-Medium, Futura Md BT;font-weight:500;}.cls-8{font-size:26.69px;}.cls-9{stroke:#fff;}.cls-10,.cls-11{stroke:#bf0811;}</style></defs><title>logo</title><path class="cls-1" d="M298,460.89c-78.3-273-81-449.71-81-449.71" transform="translate(-67.24 -9.4)"/><path class="cls-1" d="M301.64,459C380.85,184.5,380,9.49,380,9.49" transform="translate(-67.24 -9.4)"/><path class="cls-1" d="M461,459.21c-78.3-273-81-449.72-81-449.72" transform="translate(-67.24 -9.4)"/><line class="cls-2" x1="91.93" y1="375.9" x2="210.35" y2="375.91"/><line class="cls-2" x1="103.96" y1="326.28" x2="198.25" y2="326.16"/><line class="cls-2" x1="114.95" y1="276.02" x2="187.19" y2="276.1"/><line class="cls-2" x1="124.58" y1="226.31" x2="177.37" y2="226.48"/><line class="cls-2" x1="132.84" y1="177.24" x2="168.78" y2="177.25"/><line class="cls-3" x1="111.9" y1="401.86" x2="130.69" y2="377.37"/><line class="cls-3" x1="228.5" y1="450.82" x2="170.94" y2="375.91"/><line class="cls-3" x1="130.69" y1="377.37" x2="103.96" y2="326.28"/><line class="cls-3" x1="170.94" y1="375.91" x2="198.25" y2="326.16"/><line class="cls-3" x1="109.39" y1="326.28" x2="146.37" y2="276.05"/><line class="cls-3" x1="192.47" y1="326.17" x2="157.13" y2="276.06"/><line class="cls-3" x1="146.37" y1="276.05" x2="129.05" y2="226.32"/><line class="cls-3" x1="157.13" y1="276.06" x2="172.57" y2="226.47"/><line class="cls-3" x1="130.22" y1="226.65" x2="151.98" y2="177.58"/><line class="cls-3" x1="150.81" y1="177.25" x2="172.57" y2="226.47"/><line class="cls-4" x1="151.07" y1="178.65" x2="150.3" y2="78.98"/><path class="cls-1" d="M153.48,407.3C217.77,165.42,217,11.18,217,11.18" transform="translate(-67.24 -9.4)"/><line class="cls-2" x1="254.8" y1="375.02" x2="373.22" y2="375.03"/><line class="cls-2" x1="266.83" y1="325.4" x2="361.12" y2="325.28"/><line class="cls-2" x1="277.81" y1="275.14" x2="350.06" y2="275.22"/><line class="cls-2" x1="287.45" y1="225.43" x2="340.23" y2="225.6"/><line class="cls-2" x1="295.71" y1="176.36" x2="331.65" y2="176.37"/><line class="cls-3" x1="237.39" y1="449.7" x2="293.55" y2="376.49"/><line class="cls-3" x1="391.37" y1="449.94" x2="333.8" y2="375.03"/><line class="cls-3" x1="293.55" y1="376.49" x2="266.83" y2="325.4"/><line class="cls-3" x1="333.8" y1="375.03" x2="361.12" y2="325.28"/><line class="cls-3" x1="272.26" y1="325.4" x2="309.23" y2="275.17"/><line class="cls-3" x1="355.33" y1="325.29" x2="320" y2="275.18"/><line class="cls-3" x1="309.23" y1="275.17" x2="291.92" y2="225.44"/><line class="cls-3" x1="320" y1="275.18" x2="335.44" y2="225.59"/><line class="cls-3" x1="293.08" y1="225.77" x2="314.85" y2="176.7"/><line class="cls-3" x1="313.68" y1="176.37" x2="335.44" y2="225.59"/><line class="cls-4" x1="313.86" y1="177.85" x2="313.08" y2="78.18"/><rect class="cls-5" x="217.43" y="447.69" width="188.92" height="11.43"/><text class="cls-6" transform="translate(4.55 441.07) scale(1.06 1)">Constructores</text><text class="cls-7" transform="translate(0 500.72) scale(1.06 1)">Electrociviles</text><text class="cls-8" transform="translate(4.55 531.71) scale(1.06 1)"><tspan xml:space="preserve">A  S  O  C  I  A  D  O  S    S . A . S</tspan></text><rect class="cls-9" x="126.21" y="151.03" width="216.37" height="13"/><rect class="cls-9" x="111.9" y="224.82" width="241.3" height="15.21"/><line class="cls-10" x1="82.81" y1="157.65" x2="352.29" y2="157.93"/><path class="cls-11" d="M136.5,153.18c7.56,0,13.69,5.76,13.69,12.86s-6.13,12.86-13.69,12.86-13.7-5.76-13.7-12.86S128.94,153.18,136.5,153.18Z" transform="translate(-67.24 -9.4)"/><path class="cls-11" d="M431.46,154.53c7.57,0,13.7,5.75,13.7,12.86s-6.13,12.86-13.7,12.86-13.69-5.76-13.69-12.86S423.9,154.53,431.46,154.53Z" transform="translate(-67.24 -9.4)"/><line class="cls-10" x1="53.62" y1="232.81" x2="383.05" y2="232.51"/><path class="cls-11" d="M107.91,228.28c7.56,0,13.69,5.75,13.69,12.86S115.47,254,107.91,254s-13.69-5.76-13.69-12.86S100.35,228.28,107.91,228.28Z" transform="translate(-67.24 -9.4)"/><path class="cls-11" d="M461.44,228.06c7.56,0,13.69,5.75,13.69,12.86s-6.13,12.86-13.69,12.86-13.69-5.76-13.69-12.86S453.88,228.06,461.44,228.06Z" transform="translate(-67.24 -9.4)"/></svg>